<svg xmlns="http://www.w3.org/2000/svg" xmlns:xlink="http://www.w3.org/1999/xlink" viewBox="0 0 178 45" id="conrad_logo">
    <path d="M42,0 L40.2512467,7.75013879 L29.1138462,7.75013879 C18.805305,7.75013879 13.1287003,14.4234958 13.1287003,26.5409745 C13.1287003,34.346842 16.4186737,37.2492207 25.2674801,37.2492207 L33.6642971,37.2492207 L31.947374,45 L17.3404775,45 C4.3862069,45 0,40.8549344 0,28.6644318 C0,18.7741812 3.10344828,9.85694154 8.16381963,5.12063885 C12.0101857,1.5335013 17.4741645,0 26.448382,0 L42,0 Z M43.8273863,11 C51.2994732,11 54,13.2714797 54,19.4994033 C54,28.7440334 48.8306,33.9988067 39.7577113,33.9988067 L26.0397906,34 C18.5683332,34 16,32.0208831 16,26.3108592 C16,16.3842482 20.8697611,11 29.8091972,11 L43.8273863,11 Z M69.4392423,11 L75.9345068,24.267808 L79.0842566,11 L88,11 L82.5648678,34 L73.2838635,34 L65.4945497,18.7537743 L61.9151179,34 L53,34 L58.402609,11 L69.4392423,11 Z M107.52663,11 C115.248008,11 118.323061,13.0106355 118.323061,18.007393 C118.323061,22.6127626 115.382365,25.5976913 109.799331,26.7336706 L113.424423,31.1015824 L123.163036,18.1046433 C128.186033,11.3726573 128.622355,11.0160613 135.929118,11.0006312 L148,11 L142.518522,34 L133.092145,34 L134.060392,29.880882 L124.133807,29.880882 L121.189956,34 L111.77241,34 C106.490259,34 106.256239,33.8711284 103.615794,29.6201556 L99.1025628,22.2565759 L105.688537,22.2565759 C108.29492,22.2565759 109.565311,21.2196368 109.565311,19.1427756 C109.565311,17.6828275 108.161826,16.9042283 105.486687,16.9042283 L99.5050005,16.9042283 L95.425746,34 L86,34 L91.4814785,11 L107.52663,11 Z M168.691827,11 C175.217802,11 178,13.4980804 178,19.4023087 C178,28.9394034 173.296522,34 164.449756,34 L145,34 L150.401842,11 Z M33.0441639,17.097852 C28.207766,17.097852 25.427923,19.823389 25.427923,24.7869928 C25.427923,27.6085919 26.7410463,28.452864 30.9089222,28.452864 L36.9898287,28.4534606 C41.5593215,28.4534606 44.0281947,25.6945107 44.0281947,20.5375895 C44.0281947,17.8120525 43.0279296,17.0984487 39.1924262,17.0984487 L33.0441639,17.097852 Z M163.653234,16.9042283 L158.353927,16.9042283 L155.702399,28.096965 L162.064567,28.096965 C165.9734,28.096965 168.424236,25.1770687 168.424236,20.5376913 C168.424236,17.6828275 167.397636,16.9042283 163.653234,16.9042283 Z M136.858532,16.9042283 L136.223968,16.9042283 C133.315441,16.9042283 132.713046,17.2610117 130.707165,20.2137224 L127.900825,24.267808 L135.120733,24.267808 L136.858532,16.9042283 Z" fill="#4281FF" />
</svg>