<svg version="1.1" id="Layer_1" xmlns="http://www.w3.org/2000/svg" xmlns:xlink="http://www.w3.org/1999/xlink" viewBox="0 0 512 512" xml:space="preserve" width="800px" height="800px" fill="#000000">
	<path style="fill:#FEBBA0;" d="M213.864,319.126v20.353c0,6.799-4.088,12.932-10.365,15.549l-67.241,28.016 c-14.206,5.92-23.459,22.008-23.459,37.397v81.092h286.352v-81.092c0-15.389-9.254-31.479-23.459-37.397l-67.241-28.016 c-6.277-2.615-10.365-8.749-10.365-15.549v-20.353H213.864z"></path><path style="fill:#c41717;" d="M375.692,383.044l-67.241-28.016c-5.658-2.357-9.526-7.576-10.237-13.561v12.816 c0,23.239-19.014,42.255-42.255,42.255l0,0c-23.239,0-42.254-19.014-42.254-42.255v-12.557c-0.79,5.877-4.632,10.978-10.208,13.301 l-67.241,28.016c-14.206,5.92-23.459,22.008-23.459,37.397v81.092h286.352v-81.092C399.151,405.053,389.896,388.963,375.692,383.044 z"></path><path style="fill:#FEBBA0;" d="M350.006,199.171v-30.443c0-51.831-42.017-93.848-93.848-93.848 c-51.831,0-93.848,42.017-93.848,93.848h-0.368v30.443c-12.925,0-23.403,10.478-23.403,23.403c0,12.925,10.478,23.403,23.403,23.403 v17.472c1.126,14.735,8.311,27.853,19.192,35.038l56.575,32.343c11.36,7.503,25.173,7.503,36.533,0l56.405-32.343 c10.879-7.185,18.233-20.303,19.36-35.038v-17.472c12.925,0,23.403-10.478,23.403-23.403 C373.409,209.648,362.931,199.171,350.006,199.171z"></path><path style="fill:#703E41;" d="M345.538,69.976c-17.704-22.56-36.427-27.376-50.329-20.61c-11.022-9.42-27.536-18.827-55.116-18.827 c-62.297,0-96.385,47.794-96.385,90.274c0,45.334,18.236,74.222,18.236,74.222s6.794-47.684,53.474-47.684 c31.206,0,50.01-12.389,63.133-27.592c5.577,14.531,32.583,20.632,43.191,30.01c20.997,18.557,28.249,33.081,28.249,33.081 S383.08,117.806,345.538,69.976z"></path><path d="M294.077,235.482c-6.44,0-11.679-5.239-11.679-11.678c0-6.44,5.239-11.679,11.679-11.679c6.44,0,11.679,5.239,11.679,11.679 C305.756,230.243,300.517,235.482,294.077,235.482z"></path><path d="M217.872,235.482c-6.44,0-11.679-5.239-11.679-11.678c0-6.44,5.239-11.679,11.679-11.679s11.679,5.239,11.679,11.679 C229.549,230.243,224.311,235.482,217.872,235.482z"></path><path d="M256.018,292.456c-11.39,0-20.658-9.267-20.658-20.658c0-5.77,4.678-10.448,10.448-10.448h20.419 c5.77,0,10.448,4.678,10.448,10.448C276.675,283.19,267.409,292.456,256.018,292.456z"></path><path d="M222.92,479.118c-2.674,0-5.348-1.02-7.388-3.06l-23.465-23.465c-4.08-4.08-4.08-10.696,0-14.777l23.465-23.465 c4.08-4.08,10.696-4.08,14.777,0c4.081,4.08,4.08,10.696,0,14.777l-16.078,16.077l16.078,16.077c4.08,4.08,4.08,10.696,0,14.777 C228.269,478.099,225.594,479.118,222.92,479.118z"></path><path d="M288.73,479.118c-2.674,0-5.348-1.02-7.388-3.06c-4.08-4.08-4.08-10.696,0-14.777l16.078-16.077l-16.078-16.077 c-4.08-4.08-4.08-10.696,0-14.777c4.08-4.08,10.696-4.08,14.777,0l23.465,23.465c4.08,4.08,4.08,10.696,0,14.777l-23.465,23.465 C294.078,478.099,291.403,479.118,288.73,479.118z"></path><path d="M251.83,479.12c-0.628,0-1.263-0.057-1.903-0.174c-5.675-1.045-9.428-6.491-8.384-12.167l8.681-47.169 c1.045-5.674,6.487-9.428,12.167-8.384c5.675,1.045,9.428,6.491,8.384,12.167l-8.681,47.169 C261.166,475.596,256.773,479.12,251.83,479.12z"></path><path d="M 102.784 421.452 L 102.351 491.083 L 44.386 491.083 C 38.616 491.083 33.938 495.761 33.938 501.531 C 33.938 507.301 38.616 511.979 44.386 511.979 L 467.563 511.979 C 473.333 511.979 478.011 507.301 478.011 501.531 C 478.011 495.762 473.333 491.085 467.563 491.085 L 409.599 491.085 L 409.599 420.441 C 409.599 400.076 397.308 380.732 379.711 373.399 L 312.47 345.383 C 310.389 344.516 308.95 342.646 308.613 340.467 C 308.609 340.417 308.603 340.367 308.597 340.317 C 308.56 340.041 308.534 339.763 308.534 339.479 L 308.534 323.209 L 335.844 307.55 C 336.034 307.441 336.221 307.325 336.405 307.204 C 350.079 298.174 359.059 282.113 360.425 264.243 C 360.446 263.979 360.455 263.712 360.455 263.447 L 360.455 254.773 C 374.023 250.36 383.857 237.592 383.857 222.571 C 383.857 207.55 374.021 194.785 360.454 190.37 L 360.454 185.185 C 366.416 172.214 391.164 111.18 353.758 63.524 C 336.473 41.497 315.741 32.136 297.07 37.495 C 281.276 25.792 262.571 20.09 240.095 20.09 C 173.223 20.09 133.262 71.302 133.262 120.812 C 133.262 154.058 142.466 179.022 148.347 191.584 C 139.993 195.268 129.798 200.489 129.798 221.291 C 129.798 242.778 140.799 251.295 151.495 254.775 L 151.495 263.449 C 151.495 263.714 151.505 263.981 151.525 264.245 C 152.897 282.188 161.813 298.248 175.377 307.206 C 175.564 307.329 175.755 307.446 175.95 307.558 L 203.417 323.26 L 203.417 339.479 C 203.417 342.069 201.872 344.386 199.481 345.383 L 132.239 373.4 C 116.998 383.164 103.204 400.537 102.784 421.452 Z M 362.96 222.573 C 362.96 229.716 357.148 235.527 350.006 235.527 C 344.236 235.527 339.558 240.205 339.558 245.975 L 339.558 263.025 C 338.609 274.074 333.116 284.199 325.139 289.599 L 269.045 321.764 C 268.854 321.874 268.668 321.989 268.484 322.11 C 260.653 327.283 251.3 327.284 243.466 322.11 C 243.279 321.986 243.089 321.869 242.893 321.758 L 186.635 289.597 C 178.651 284.191 173.351 274.305 172.39 263.028 L 172.39 245.976 C 172.39 240.206 167.712 235.528 161.942 235.528 C 154.799 235.528 148.988 229.716 148.988 222.574 C 148.988 216.154 153.687 210.824 159.825 209.808 L 171.394 215.659 C 170.725 218.681 170.361 221.815 170.361 225.035 C 170.361 248.936 189.806 268.38 213.706 268.38 C 234.297 268.38 251.569 253.943 255.961 234.661 C 260.352 253.942 277.624 268.38 298.216 268.38 C 322.117 268.38 341.561 248.935 341.561 225.035 C 341.561 221.861 341.209 218.768 340.558 215.786 L 352.161 209.813 C 358.279 210.843 362.96 216.166 362.96 222.573 Z M 287.638 335.192 L 287.638 354.284 C 287.638 371.822 273.498 386.09 255.96 386.09 C 238.422 386.09 224.312 371.822 224.312 354.284 L 224.312 335.206 L 232.25 339.745 C 239.583 344.508 247.779 346.889 255.975 346.889 C 264.173 346.889 272.371 344.506 279.705 339.741 L 287.638 335.192 Z M 298.214 181.69 C 277.623 181.69 260.351 196.127 255.959 215.408 C 251.568 196.127 234.296 181.69 213.704 181.69 C 200.506 181.69 188.676 187.625 180.719 196.96 L 173.021 193.067 C 175.437 183.504 184.775 157.802 215.417 157.802 C 240.44 157.802 260.884 150.543 277.551 135.673 C 284.017 141.444 292.523 145.587 300.37 149.409 C 306.05 152.175 311.921 155.035 314.823 157.599 C 329.558 170.621 336.977 181.458 339.557 185.653 L 339.557 192.799 L 331.283 197.059 C 323.327 187.667 311.458 181.69 298.214 181.69 Z M 320.664 225.034 C 320.664 237.413 310.593 247.483 298.215 247.483 C 285.836 247.483 275.766 237.412 275.766 225.034 C 275.766 212.656 285.837 202.586 298.215 202.586 C 310.593 202.585 320.664 212.656 320.664 225.034 Z M 236.155 225.034 C 236.155 237.413 226.084 247.483 213.706 247.483 C 201.327 247.483 191.257 237.412 191.257 225.034 C 191.257 212.656 201.328 202.586 213.706 202.586 C 226.084 202.585 236.155 212.656 236.155 225.034 Z M 240.095 40.987 C 266.295 40.987 280.224 50.302 288.422 57.309 C 291.582 60.011 296.044 60.579 299.783 58.761 C 310.509 53.54 324.543 60.143 337.32 76.425 C 359.267 104.386 353.547 140.058 347.226 160.868 C 342.618 155.366 336.524 148.888 328.662 141.941 C 323.63 137.493 316.777 134.155 309.521 130.622 C 300.966 126.455 290.321 121.27 288.304 116.017 C 286.988 112.587 283.966 110.1 280.347 109.468 C 276.726 108.835 273.042 110.151 270.641 112.934 C 256.524 129.288 238.975 136.905 215.417 136.905 C 186.546 136.905 170.62 152.516 162.344 165.614 C 161.977 166.194 161.624 166.773 161.28 167.351 C 157.555 155.685 154.156 139.827 154.156 120.815 C 154.157 81.575 186.301 40.987 240.095 40.987 Z M 388.703 491.085 L 123.246 491.085 L 123.246 420.441 C 123.246 408.665 130.567 396.734 140.275 392.688 L 204.563 365.902 C 209.871 389.388 230.892 406.985 255.958 406.985 C 281.029 406.985 302.052 389.382 307.356 365.891 L 371.671 392.689 C 381.379 396.734 388.7 408.665 388.7 420.442 L 388.7 491.085 L 388.703 491.085 Z"></path>
</svg>