<?xml version="1.0" encoding="utf-8"?>
<svg xmlns="http://www.w3.org/2000/svg">
	<defs>
		<symbol id="icon-email" viewBox="6 6 20 20">
			<path d="M16.006 6.5a.5.5 0 0 0-.049.002.5.5 0 0 0-.27.1L13.18 8.48H8.504v3.504l-1.697 1.272a.5.5 0 0 0-.29.637.5.5 0 0 0-.013.115v10.967a.5.5 0 0 0 .002.076.5.5 0 0 0 .02.097.5.5 0 0 0 .017.045.5.5 0 0 0 0 .002.5.5 0 0 0 .021.043.5.5 0 0 0 0 .002.5.5 0 0 0 .168.18.5.5 0 0 0 .002 0 .5.5 0 0 0 .041.025.5.5 0 0 0 .002 0 .5.5 0 0 0 .141.047.5.5 0 0 0 .002 0 .5.5 0 0 0 .047.006.5.5 0 0 0 .002 0 .5.5 0 0 0 .004 0 .5.5 0 0 0 .03.002.5.5 0 0 0 .015 0h17.88a.5.5 0 0 0 .606-.576V14.008a.5.5 0 0 0-.037-.197.5.5 0 0 0-.264-.538l-1.7-1.271V8.48H18.8L16.285 6.6a.5.5 0 0 0-.28-.1zm-.018 1.125 1.143.855h-2.283l1.14-.855zM9.504 9.48h13V14.674l-6.518 4.07-6.482-4.04V9.48zm3 .989v1.062h6.984V10.47h-6.984zm-1 2.031v1.063h9V12.5h-9zm-3 .734v.848l-.617-.385.617-.463zm15 .016.582.436-.582.363v-.799zm-10 1.25v1.063h5V14.5h-5zm11 .104v9.47l-5.217-3.486a.5.5 0 0 0-.283-.09v.002a.5.5 0 0 0-.274.92l4.614 3.08H8.654l4.62-3.08a.5.5 0 0 0-.288-.92.5.5 0 0 0-.267.088l-5.215 3.478v-9.431l1 .623 7.219 4.5.033.021h.006a.5.5 0 0 0 .002.002.5.5 0 0 0 .002 0 .5.5 0 0 0 .013.006.5.5 0 0 0 .076.027.5.5 0 0 0 .03.008.5.5 0 0 0 .02.004.5.5 0 0 0 .003 0 .5.5 0 0 0 .045.006.5.5 0 0 0 .006 0 .5.5 0 0 0 .123-.008.5.5 0 0 0 .02-.004.5.5 0 0 0 .095-.033.5.5 0 0 0 .016-.008h.006l.027-.017a.5.5 0 0 0 .006-.004l7.252-4.53 1-.624z" fill="currentColor"></path>
		</symbol>
		<symbol id="icon-linkedin" viewBox="1 1 21 21">
			<path d="M20.47,2H3.53A1.45,1.45,0,0,0,2.06,3.43V20.57A1.45,1.45,0,0,0,3.53,22H20.47a1.45,1.45,0,0,0,1.47-1.43V3.43A1.45,1.45,0,0,0,20.47,2ZM8.09,18.74h-3v-9h3ZM6.59,8.48h0a1.56,1.56,0,1,1,0-3.12,1.57,1.57,0,1,1,0,3.12ZM18.91,18.74h-3V13.91c0-1.21-.43-2-1.52-2A1.65,1.65,0,0,0,12.85,13a2,2,0,0,0-.1.73v5h-3s0-8.18,0-9h3V11A3,3,0,0,1,15.46,9.5c2,0,3.45,1.29,3.45,4.06Z" fill="currentColor"></path>
		</symbol>
		<symbol id="icon-english" viewBox="0 0 512 512">
			<path fill="#f0f0f0" d="M0 85.333h512V426.67H0z"></path><path fill="#d80027" d="M288 85.33h-64v138.666H0v64h224v138.666h64V287.996h224v-64H288z"></path><path fill="#0052b4" d="M393.785 315.358 512 381.034v-65.676zM311.652 315.358 512 426.662v-31.474l-143.693-79.83zM458.634 426.662l-146.982-81.664v81.664z"></path><path fill="#f0f0f0" d="M311.652 315.358 512 426.662v-31.474l-143.693-79.83z"></path><path fill="#d80027" d="M311.652 315.358 512 426.662v-31.474l-143.693-79.83z"></path><path fill="#0052b4" d="M90.341 315.356 0 365.546v-50.19zM200.348 329.51v97.151H25.491z"></path><path fill="#d80027" d="M143.693 315.358 0 395.188v31.474l200.348-111.304z"></path><path fill="#0052b4" d="M118.215 196.634 0 130.958v65.676zM200.348 196.634 0 85.33v31.474l143.693 79.83zM53.366 85.33l146.982 81.664V85.33z"></path><path fill="#f0f0f0" d="M200.348 196.634 0 85.33v31.474l143.693 79.83z"></path><path fill="#d80027" d="M200.348 196.634 0 85.33v31.474l143.693 79.83z"></path><path fill="#0052b4" d="M421.659 196.636 512 146.446v50.19zM311.652 182.482V85.331h174.857z"></path><path fill="#d80027" d="M368.307 196.634 512 116.804V85.33L311.652 196.634z"></path>
		</symbol>
		<symbol id="icon-czech" viewBox="0 0 512 512">
			<path fill="#0052b4" d="M0 85.337h512v341.326H0z"></path><path fill="#d80027" d="M512 256v170.663H0L215.185 256z"></path><path fill="#f0f0f0" d="M512 85.337V256H215.185L0 85.337z"></path>
		</symbol>
	</defs>
</svg>