<svg xmlns="http://www.w3.org/2000/svg" xmlns:xlink="http://www.w3.org/1999/xlink" id="Vrstva_1" x="0px" y="0px" viewBox="0 0 232.9 60.4" style="enable-background:new 0 0 232.9 60.4;" xml:space="preserve">
<style type="text/css">
	.st0{fill:#09090A;}
	.st1{fill:#48A035;}
</style>
<path class="st0" d="M81.5,19.5c0-0.9-0.4-1.8-1.1-2.3c-1.2-0.8-2.5-1.3-3.9-1.7c-1.5-0.5-3-1.1-4.4-1.8c-3-1.6-4.4-3.8-4.4-6.5  c0-1.3,0.4-2.7,1.2-3.8c0.9-1.2,2.1-2.1,3.4-2.6c1.6-0.6,3.3-1,5-0.9c1.7,0,3.4,0.3,5,1c1.4,0.6,2.5,1.6,3.4,2.9  c0.8,1.2,1.2,2.7,1.2,4.2h-5.4c0-1-0.4-2.1-1.2-2.8c-0.9-0.7-2-1.1-3.2-1c-1.1-0.1-2.2,0.2-3.1,0.8c-0.7,0.5-1.1,1.3-1.1,2.2  c0,0.9,0.5,1.7,1.3,2.1c1.2,0.7,2.4,1.3,3.8,1.6c2.5,0.6,4.7,1.8,6.7,3.4c1.4,1.3,2.1,3.2,2.1,5.1c0.1,2.1-0.9,4.1-2.6,5.3  c-2,1.4-4.4,2.1-6.9,1.9c-1.9,0-3.7-0.4-5.5-1.1c-1.5-0.6-2.8-1.7-3.8-3c-0.9-1.3-1.3-2.9-1.3-4.4h5.4c0,2.9,1.7,4.3,5.1,4.3  c1.1,0.1,2.1-0.2,3-0.8C81.1,21.2,81.5,20.4,81.5,19.5z"></path>
<path class="st0" d="M96.6,0l6.7,18.9L110,0h7v26h-5.3v-7.1l0.5-12.3l-7,19.4h-3.7l-7-19.4L95,18.9V26h-5.4V0L96.6,0z"></path>
<path class="st0" d="M136.3,20.7h-9.4l-1.8,5.4h-5.7l9.7-26h5l9.7,26h-5.7L136.3,20.7z M128.4,16.3h6.5l-3.3-9.7L128.4,16.3z"></path>
<path class="st0" d="M156.9,16.5h-4.3V26h-5.4V0h9.7c3.1,0,5.4,0.7,7.1,2c1.7,1.4,2.6,3.6,2.5,5.8c0.1,1.5-0.3,3.1-1.1,4.4  c-0.9,1.3-2.1,2.2-3.5,2.8l5.6,10.6V26h-5.8L156.9,16.5z M152.6,12.2h4.3c1.1,0.1,2.2-0.3,3.1-1c0.8-0.7,1.2-1.8,1.1-2.9  c0.1-1.1-0.3-2.1-1-2.9c-0.9-0.7-2-1.1-3.2-1h-4.3L152.6,12.2z"></path>
<path class="st0" d="M189.3,4.3h-8V26h-5.4V4.3h-7.9V0h21.2V4.3z"></path>
<path class="st0" d="M83.8,49.1H73.5v7h12.1v4.3H68.2v-26h17.4v4.3h-12V45h10.3V49.1z"></path>
<path class="st0" d="M96.6,34.4l6.7,18.9l6.6-18.9h7v26h-5.3v-7.1l0.5-12.3l-7,19.4h-3.7l-7-19.4L95,53.3v7.1h-5.4v-26L96.6,34.4z"></path>
<path class="st0" d="M136.3,55h-9.4l-1.8,5.4h-5.7l9.7-26h5l9.7,26h-5.7L136.3,55z M128.4,50.7h6.5l-3.3-9.7L128.4,50.7z"></path>
<path class="st0" d="M152.6,60.4h-5.4v-26h5.4V60.4z"></path>
<path class="st0" d="M161.4,56.1h11.4v4.3H156v-26h5.4V56.1z"></path>
<path class="st0" d="M181.4,60.4h-5.4v-26h5.4V60.4z"></path>
<path class="st0" d="M207.6,60.4h-5.3l-10.5-17.1v17.1h-5.4v-26h5.4l10.5,17.1V34.4h5.3L207.6,60.4z"></path>
<path class="st0" d="M232.9,56.8c-1.1,1.2-2.5,2.2-4.1,2.7c-1.9,0.7-3.9,1-5.9,1c-2.1,0-4.1-0.5-5.9-1.5c-1.7-1-3.1-2.5-3.9-4.3  c-1-2.1-1.5-4.3-1.4-6.6v-1.8c-0.1-2.3,0.4-4.6,1.3-6.8c0.8-1.8,2.1-3.3,3.8-4.4c4.1-2.2,9.1-2,13,0.7c1.8,1.6,3,3.9,3.1,6.4h-5.2  c-0.1-1.2-0.7-2.4-1.6-3.3c-1-0.7-2.2-1.1-3.4-1c-1.7-0.1-3.2,0.7-4.2,2.1c-1.1,1.8-1.6,4-1.4,6.1v1.7c0,2.7,0.5,4.8,1.6,6.2  c1.1,1.4,2.8,2.2,4.6,2.1c2,0,3.4-0.4,4.3-1.3v-4.5h-4.9v-4h10.2V56.8z"></path>
<g id="Group_2">
	<path id="Path_14" class="st1" d="M9.5,34H0v26.4h26.5v-9.5h-17L9.5,34z"></path>
	<path id="Path_15" class="st1" d="M0,0v26.5h9.5v-17h17V0L0,0z"></path>
	<path id="Path_16" class="st1" d="M34.1,0v9.5h17v16.9h9.5V0H34.1z"></path>
	<path id="Path_17" class="st1" d="M51,50.9H34v9.5h26.5V34H51V50.9z"></path>
</g>
</svg>